<svg id="Layer_1" data-name="Layer 1" xmlns="http://www.w3.org/2000/svg" viewBox="0 0 874.66 206.86"><defs><style>.cls-1{fill:#1c61c6;}</style></defs><path class="cls-1" d="M0,7.87H72.18a41.72,41.72,0,0,1,30.6,12.71,41.71,41.71,0,0,1,12.7,30.6,41.67,41.67,0,0,1-12.7,30.6A45,45,0,0,1,94,88.71a45.77,45.77,0,0,1,8.78,6.93,41.71,41.71,0,0,1,12.7,30.61,41.71,41.71,0,0,1-12.7,30.6,41.71,41.71,0,0,1-30.6,12.7H0ZM11.55,19.42V158H72.18a31.74,31.74,0,0,0,31.76-31.75A31.74,31.74,0,0,0,72.18,94.49H34.65L23.1,82.94H72.18a30.61,30.61,0,0,0,22.46-9.3,30.58,30.58,0,0,0,9.3-22.46,30.59,30.59,0,0,0-9.3-22.46,30.61,30.61,0,0,0-22.46-9.3Z"/><path class="cls-1" d="M323.93,123.36V7.87h11.54V123.36a34.65,34.65,0,0,0,69.29,0V19.42L416.31,7.87V123.36A46.22,46.22,0,0,1,337.44,156a46.31,46.31,0,0,1-7.74-10A46.31,46.31,0,0,1,322,156a46.19,46.19,0,0,1-78.87-32.68V7.87h11.55V123.36a34.65,34.65,0,0,0,69.29,0Z"/><path class="cls-1" d="M544.94,7.87h72.18a41.72,41.72,0,0,1,30.6,12.71,41.72,41.72,0,0,1,12.71,30.6,41.68,41.68,0,0,1-12.71,30.6A45.24,45.24,0,0,1,639,88.71a46,46,0,0,1,8.77,6.93,43.2,43.2,0,0,1,0,61.21,41.71,41.71,0,0,1-30.6,12.7H544.94Zm11.55,11.55V158h60.63a31.74,31.74,0,0,0,31.76-31.75,31.74,31.74,0,0,0-31.76-31.76H579.59L568,82.94h49.08a30.59,30.59,0,0,0,22.46-9.3,30.58,30.58,0,0,0,9.3-22.46,30.59,30.59,0,0,0-9.3-22.46,30.59,30.59,0,0,0-22.46-9.3Z"/><path class="cls-1" d="M828.47,19.42V169.55L816.92,158V19.42h-46.2V7.87H874.66V19.42Z"/><path class="cls-1" d="M211.14,14.21a45.34,45.34,0,0,0-65.93,0A46.92,46.92,0,0,0,131,48.65v121.7l12.17-12.17V48.65a35.17,35.17,0,0,1,10.71-25.8,33,33,0,0,1,48.65,0,35.17,35.17,0,0,1,10.71,25.8V158.18l12.17,12.17V48.65A46.92,46.92,0,0,0,211.14,14.21Z"/><path class="cls-1" d="M753.16,14.55a45,45,0,0,0-65.44,0,46.55,46.55,0,0,0-14.14,34.19v120.8l12.08-12.08V48.74a34.92,34.92,0,0,1,10.63-25.61,32.8,32.8,0,0,1,48.29,0,34.88,34.88,0,0,1,10.63,25.61V157.46l12.08,12.08V48.74A46.58,46.58,0,0,0,753.16,14.55Z"/><rect class="cls-1" x="682.69" y="74.73" width="75.49" height="12.08"/><path class="cls-1" d="M194.46,43.25Q183.8,24.38,168.83,16.68q-15-6.72-25.64,1.84-11.07,8.9-11.07,29.1v121.7l15.48,7.47S167.79,117,187.49,196l18,8.7V83Q205.54,62.83,194.46,43.25Zm-47.4,82.9a4.43,4.43,0,1,1,4.43-4.43A4.42,4.42,0,0,1,147.06,126.15Zm21.77,10.5a4.43,4.43,0,1,1,4.43-4.43A4.43,4.43,0,0,1,168.83,136.65ZM191.37,146a4.43,4.43,0,1,1,4.43-4.43A4.42,4.42,0,0,1,191.37,146Z"/><path class="cls-1" d="M447.06,16.33a45.36,45.36,0,0,1,65.93,0,46.92,46.92,0,0,1,14.24,34.44v121.7L515.06,160.3V50.77A35.17,35.17,0,0,0,504.35,25a33.06,33.06,0,0,0-48.65,0A35.17,35.17,0,0,0,445,50.77V160.3l-12.17,12.17V50.77A46.88,46.88,0,0,1,447.06,16.33Z"/><path class="cls-1" d="M463.74,45.37q10.65-18.85,25.63-26.57,15-6.71,25.64,1.84,11.07,8.91,11.07,29.1v121.7l-15.48,7.47s-20.19-59.79-39.89,19.24l-18,8.71V85.15Q452.66,65,463.74,45.37Zm47.4,82.91a4.43,4.43,0,1,0-4.43-4.43A4.42,4.42,0,0,0,511.14,128.28Zm-21.77,10.49a4.43,4.43,0,1,0-4.43-4.42A4.42,4.42,0,0,0,489.37,138.77Zm-22.54,9.39a4.43,4.43,0,1,0-4.43-4.42A4.42,4.42,0,0,0,466.83,148.16Z"/></svg>