<svg width="57" height="56" viewBox="0 0 57 56" fill="none" xmlns="http://www.w3.org/2000/svg">
<circle cx="28.5" cy="28" r="28" fill="#FF4242" fill-opacity="0.12"/>
<g clip-path="url(#clip0_2_1749)">
<rect x="16" y="16" width="24" height="24" rx="12" fill="#FF4242"/>
<path d="M31.9999 24.0001C31.8124 23.8127 31.5581 23.7073 31.2929 23.7073C31.0278 23.7073 30.7735 23.8127 30.5859 24.0001L27.9999 26.5861L25.4139 24.0001C25.2253 23.818 24.9727 23.7172 24.7105 23.7194C24.4484 23.7217 24.1975 23.8269 24.0121 24.0123C23.8267 24.1977 23.7216 24.4485 23.7193 24.7107C23.717 24.9729 23.8178 25.2255 23.9999 25.4141L26.5859 28.0001L23.9999 30.5861C23.8178 30.7747 23.717 31.0273 23.7193 31.2895C23.7216 31.5517 23.8267 31.8025 24.0121 31.9879C24.1975 32.1733 24.4484 32.2785 24.7105 32.2808C24.9727 32.2831 25.2253 32.1823 25.4139 32.0001L27.9999 29.4141L30.5859 32.0001C30.7745 32.1823 31.0271 32.2831 31.2893 32.2808C31.5515 32.2785 31.8023 32.1733 31.9878 31.9879C32.1732 31.8025 32.2783 31.5517 32.2806 31.2895C32.2829 31.0273 32.1821 30.7747 31.9999 30.5861L29.4139 28.0001L31.9999 25.4141C32.1874 25.2266 32.2927 24.9723 32.2927 24.7071C32.2927 24.442 32.1874 24.1877 31.9999 24.0001Z" fill="white"/>
<path d="M28 16C25.6266 16 23.3066 16.7038 21.3332 18.0224C19.3598 19.3409 17.8217 21.2151 16.9135 23.4078C16.0052 25.6005 15.7676 28.0133 16.2306 30.3411C16.6936 32.6689 17.8365 34.8071 19.5147 36.4853C21.193 38.1635 23.3312 39.3064 25.6589 39.7694C27.9867 40.2324 30.3995 39.9948 32.5922 39.0866C34.7849 38.1783 36.6591 36.6402 37.9776 34.6668C39.2962 32.6935 40 30.3734 40 28C39.9966 24.8185 38.7312 21.7682 36.4815 19.5185C34.2318 17.2688 31.1815 16.0034 28 16V16ZM28 38C26.0222 38 24.0888 37.4135 22.4443 36.3147C20.7998 35.2159 19.5181 33.6541 18.7612 31.8268C18.0043 29.9996 17.8063 27.9889 18.1922 26.0491C18.578 24.1093 19.5304 22.3275 20.9289 20.9289C22.3275 19.5304 24.1093 18.578 26.0491 18.1921C27.9889 17.8063 29.9996 18.0043 31.8268 18.7612C33.6541 19.5181 35.2159 20.7998 36.3147 22.4443C37.4135 24.0888 38 26.0222 38 28C37.9971 30.6513 36.9426 33.1931 35.0679 35.0679C33.1931 36.9426 30.6513 37.9971 28 38Z" fill="#FF4242"/>
</g>
<defs>
<clipPath id="clip0_2_1749">
<rect x="16" y="16" width="24" height="24" rx="12" fill="white"/>
</clipPath>
</defs>
</svg>
