<svg width="30" height="30" viewBox="0 0 30 30" fill="none" xmlns="http://www.w3.org/2000/svg">
<g clip-path="url(#clip0_34_83)">
<path d="M22 8.99968H16V5.99968C16 5.73446 15.8946 5.48011 15.7071 5.29257C15.5196 5.10504 15.2652 4.99968 15 4.99968C14.7348 4.99968 14.4804 5.10504 14.2929 5.29257C14.1054 5.48011 14 5.73446 14 5.99968V8.99968H8C6.67441 9.00127 5.40356 9.52856 4.46622 10.4659C3.52888 11.4032 3.00159 12.6741 3 13.9997L3 17.9997C3.00159 19.3253 3.52888 20.5961 4.46622 21.5335C5.40356 22.4708 6.67441 22.9981 8 22.9997H22C23.3256 22.9981 24.5964 22.4708 25.5338 21.5335C26.4711 20.5961 26.9984 19.3253 27 17.9997V13.9997C26.9984 12.6741 26.4711 11.4032 25.5338 10.4659C24.5964 9.52856 23.3256 9.00127 22 8.99968ZM13 12.9997H14C14.2652 12.9997 14.5196 13.105 14.7071 13.2926C14.8946 13.4801 15 13.7345 15 13.9997C15 14.2649 14.8946 14.5192 14.7071 14.7068C14.5196 14.8943 14.2652 14.9997 14 14.9997H13C12.7348 14.9997 12.4804 14.8943 12.2929 14.7068C12.1054 14.5192 12 14.2649 12 13.9997C12 13.7345 12.1054 13.4801 12.2929 13.2926C12.4804 13.105 12.7348 12.9997 13 12.9997ZM8 18.9997C7.80222 18.9997 7.60888 18.941 7.44443 18.8311C7.27998 18.7213 7.15181 18.5651 7.07612 18.3824C7.00043 18.1996 6.98063 17.9986 7.01921 17.8046C7.0578 17.6106 7.15304 17.4324 7.29289 17.2926C7.43275 17.1527 7.61093 17.0575 7.80491 17.0189C7.99889 16.9803 8.19996 17.0001 8.38268 17.0758C8.56541 17.1515 8.72159 17.2797 8.83147 17.4441C8.94135 17.6086 9 17.8019 9 17.9997C9 18.2649 8.89464 18.5192 8.70711 18.7068C8.51957 18.8943 8.26522 18.9997 8 18.9997ZM9 14.9997H8C7.73478 14.9997 7.48043 14.8943 7.29289 14.7068C7.10536 14.5192 7 14.2649 7 13.9997C7 13.7345 7.10536 13.4801 7.29289 13.2926C7.48043 13.105 7.73478 12.9997 8 12.9997H9C9.26522 12.9997 9.51957 13.105 9.70711 13.2926C9.89464 13.4801 10 13.7345 10 13.9997C10 14.2649 9.89464 14.5192 9.70711 14.7068C9.51957 14.8943 9.26522 14.9997 9 14.9997ZM18 18.9997H12C11.7348 18.9997 11.4804 18.8943 11.2929 18.7068C11.1054 18.5192 11 18.2649 11 17.9997C11 17.7345 11.1054 17.4801 11.2929 17.2926C11.4804 17.105 11.7348 16.9997 12 16.9997H18C18.2652 16.9997 18.5196 17.105 18.7071 17.2926C18.8946 17.4801 19 17.7345 19 17.9997C19 18.2649 18.8946 18.5192 18.7071 18.7068C18.5196 18.8943 18.2652 18.9997 18 18.9997ZM22 18.9997C21.8022 18.9997 21.6089 18.941 21.4444 18.8311C21.28 18.7213 21.1518 18.5651 21.0761 18.3824C21.0004 18.1996 20.9806 17.9986 21.0192 17.8046C21.0578 17.6106 21.153 17.4324 21.2929 17.2926C21.4327 17.1527 21.6109 17.0575 21.8049 17.0189C21.9989 16.9803 22.2 17.0001 22.3827 17.0758C22.5654 17.1515 22.7216 17.2797 22.8315 17.4441C22.9414 17.6086 23 17.8019 23 17.9997C23 18.2649 22.8946 18.5192 22.7071 18.7068C22.5196 18.8943 22.2652 18.9997 22 18.9997ZM22 14.9997H18C17.7348 14.9997 17.4804 14.8943 17.2929 14.7068C17.1054 14.5192 17 14.2649 17 13.9997C17 13.7345 17.1054 13.4801 17.2929 13.2926C17.4804 13.105 17.7348 12.9997 18 12.9997H22C22.2652 12.9997 22.5196 13.105 22.7071 13.2926C22.8946 13.4801 23 13.7345 23 13.9997C23 14.2649 22.8946 14.5192 22.7071 14.7068C22.5196 14.8943 22.2652 14.9997 22 14.9997Z" fill="white"/>
</g>
<defs>
<clipPath id="clip0_34_83">
<rect width="24" height="24" fill="white" transform="translate(3 3)"/>
</clipPath>
</defs>
</svg>
