<svg width="12" height="12" viewBox="0 0 12 12" fill="none" xmlns="http://www.w3.org/2000/svg">
<g clip-path="url(#clip0_59_33)">
<path d="M11.8534 11.1465C11.9012 11.1926 11.9393 11.2478 11.9655 11.3088C11.9917 11.3698 12.0055 11.4354 12.0061 11.5018C12.0066 11.5681 11.994 11.634 11.9689 11.6954C11.9437 11.7569 11.9066 11.8127 11.8596 11.8597C11.8127 11.9066 11.7569 11.9437 11.6954 11.9689C11.634 11.994 11.5681 12.0067 11.5017 12.0061C11.4354 12.0055 11.3697 11.9917 11.3087 11.9655C11.2477 11.9393 11.1926 11.9012 11.1464 11.8535L0.14644 0.853459C0.0553608 0.759158 0.00496357 0.632857 0.00610278 0.501759C0.00724199 0.37066 0.0598265 0.245254 0.152531 0.15255C0.245235 0.0598461 0.370641 0.00726163 0.501739 0.00612242C0.632838 0.00498321 0.759139 0.0553804 0.85344 0.146459L2.28844 1.58146C2.87172 1.0266 3.61113 0.663964 4.40694 0.542459C5.35192 0.400024 6.31665 0.601274 7.12587 1.10965C7.93509 1.61803 8.53511 2.3998 8.81694 3.31296C8.84206 3.39927 8.88819 3.47802 8.95118 3.54215C9.01418 3.60628 9.09209 3.6538 9.17794 3.68046C10.049 3.94492 10.803 4.49998 11.3144 5.25308C11.8257 6.00617 12.0635 6.9118 11.9879 7.81896C11.9213 8.71475 11.5302 9.55548 10.8879 10.1835L11.8534 11.1465ZM1.72044 3.83146C1.66707 3.77776 1.59973 3.74008 1.52605 3.72268C1.45237 3.70528 1.37528 3.70886 1.30353 3.733C1.23177 3.75714 1.16821 3.80089 1.12004 3.8593C1.07186 3.9177 1.041 3.98842 1.03094 4.06346C1.01107 4.21466 1.00072 4.36696 0.99994 4.51946C1.00062 5.1512 1.16257 5.77231 1.47044 6.32396C0.964782 6.58509 0.55371 6.99817 0.295045 7.5051C0.0363807 8.01202 -0.0568596 8.58728 0.0284398 9.14996C0.158765 9.80386 0.508847 10.3935 1.02055 10.821C1.53225 11.2485 2.17478 11.4881 2.84144 11.5H7.39144C7.71839 11.5006 8.04484 11.4741 8.36744 11.421C8.44366 11.4087 8.51503 11.3757 8.57368 11.3255C8.63234 11.2753 8.67601 11.21 8.6999 11.1365C8.72378 11.0631 8.72694 10.9846 8.70904 10.9095C8.69114 10.8344 8.65287 10.7657 8.59844 10.711L1.72044 3.83146Z" fill="white"/>
</g>
<defs>
<clipPath id="clip0_59_33">
<rect width="12" height="12" fill="white"/>
</clipPath>
</defs>
</svg>
