<svg width="12" height="12" viewBox="0 0 12 12" fill="none" xmlns="http://www.w3.org/2000/svg">
<g clip-path="url(#clip0_42_37)">
<path d="M7.99997 11.4997C7.99997 11.4008 8.02929 11.3041 8.08423 11.2219C8.13918 11.1397 8.21727 11.0756 8.30863 11.0378C8.39999 10.9999 8.50052 10.99 8.59752 11.0093C8.69451 11.0286 8.7836 11.0762 8.85352 11.1461C8.92345 11.2161 8.97107 11.3052 8.99036 11.4021C9.00965 11.4991 8.99975 11.5997 8.96191 11.691C8.92407 11.7824 8.85998 11.8605 8.77775 11.9154C8.69553 11.9704 8.59886 11.9997 8.49997 11.9997C8.36736 11.9997 8.24018 11.947 8.14642 11.8532C8.05265 11.7595 7.99997 11.6323 7.99997 11.4997ZM10.2675 10.4387C10.3612 10.3449 10.4139 10.2178 10.4139 10.0852C10.4139 9.95261 10.3612 9.82546 10.2675 9.7317C9.79865 9.26302 9.16288 8.99973 8.49997 8.99973C7.83706 8.99973 7.20129 9.26302 6.73247 9.7317C6.64139 9.826 6.59099 9.9523 6.59213 10.0834C6.59327 10.2145 6.64586 10.3399 6.73856 10.4326C6.83126 10.5253 6.95667 10.5779 7.08777 10.579C7.21887 10.5802 7.34517 10.5298 7.43947 10.4387C7.72531 10.1662 8.10507 10.0142 8.49997 10.0142C8.89487 10.0142 9.27463 10.1662 9.56047 10.4387C9.65423 10.5324 9.78139 10.5851 9.91397 10.5851C10.0466 10.5851 10.1737 10.5324 10.2675 10.4387ZM11.682 9.02469C11.7757 8.93093 11.8284 8.80378 11.8284 8.6712C11.8284 8.53861 11.7757 8.41146 11.682 8.31769C10.8374 7.47499 9.69305 7.00172 8.49997 7.00172C7.30689 7.00172 6.16253 7.47499 5.31797 8.31769C5.22689 8.412 5.17649 8.5383 5.17763 8.6694C5.17877 8.80049 5.23136 8.9259 5.32406 9.0186C5.41676 9.11131 5.54217 9.16389 5.67327 9.16503C5.80437 9.16617 5.93067 9.11577 6.02497 9.02469C6.68207 8.36958 7.5721 8.00171 8.49997 8.00171C9.42784 8.00171 10.3179 8.36958 10.975 9.02469C11.0687 9.11843 11.1959 9.17109 11.3285 9.17109C11.4611 9.17109 11.5882 9.11843 11.682 9.02469ZM4.61097 9.7317C4.47165 9.5924 4.36114 9.42703 4.28574 9.24503C4.21035 9.06302 4.17154 8.86795 4.17154 8.67095C4.17154 8.47394 4.21035 8.27887 4.28574 8.09686C4.36114 7.91486 4.47165 7.74949 4.61097 7.61019C5.57748 6.64638 6.86749 6.07585 8.23081 6.00924C9.59413 5.94263 10.9336 6.38469 11.9895 7.24969C11.9422 6.43858 11.6474 5.66146 11.1448 5.02311C10.6422 4.38476 9.95587 3.91588 9.17847 3.67969C9.09271 3.65317 9.01486 3.60581 8.95186 3.54186C8.88887 3.47791 8.8427 3.39935 8.81747 3.31319C8.55289 2.463 8.01221 1.7254 7.28106 1.21721C6.54992 0.709029 5.67012 0.459325 4.78102 0.507654C3.89193 0.555983 3.04438 0.899582 2.37263 1.48402C1.70088 2.06847 1.24333 2.86034 1.07247 3.73419C0.896693 4.61753 1.03835 5.53457 1.47247 6.32369C0.966693 6.58482 0.555423 6.99782 0.296427 7.50469C0.0374324 8.01156 -0.0562746 8.58683 0.0284692 9.14969C0.15888 9.80356 0.508986 10.3932 1.02067 10.8206C1.53235 11.2481 2.17484 11.4877 2.84147 11.4997H6.39147C5.55797 10.6732 4.74347 9.86419 4.61097 9.7317Z" fill="white"/>
</g>
<defs>
<clipPath id="clip0_42_37">
<rect width="12" height="12" fill="white"/>
</clipPath>
</defs>
</svg>
