<svg width="319" height="274" viewBox="0 0 319 274" fill="none" xmlns="http://www.w3.org/2000/svg">
<g filter="url(#filter0_d_1_9)">
<rect x="30" y="2" width="44" height="44" stroke="white" stroke-width="4"/>
<rect x="37" y="9" width="30" height="30" fill="white" stroke="white" stroke-width="4"/>
<rect x="255" y="227" width="30" height="30" fill="white" stroke="white" stroke-width="4"/>
<rect x="44" y="233" width="17" height="17" fill="white" stroke="white" stroke-width="4"/>
<rect x="256" y="10" width="29" height="29" fill="white"/>
<rect x="30" y="220" width="44" height="44" stroke="white" stroke-width="4"/>
<rect x="248" y="220" width="44" height="44" stroke="white" stroke-width="4"/>
<rect x="248" y="2" width="44" height="44" stroke="white" stroke-width="4"/>
<circle cx="86.5" cy="14.5" r="7.5" fill="white"/>
<circle cx="104.5" cy="14.5" r="7.5" fill="white"/>
<circle cx="122.5" cy="14.5" r="7.5" fill="white"/>
<circle cx="140.5" cy="14.5" r="7.5" fill="white"/>
<circle cx="158.5" cy="14.5" r="7.5" fill="white"/>
<circle cx="176.5" cy="14.5" r="7.5" fill="white"/>
<circle cx="194.5" cy="14.5" r="7.5" fill="white"/>
<circle cx="212.5" cy="14.5" r="7.5" fill="white"/>
<circle cx="230.5" cy="33.5" r="7.5" fill="white"/>
<circle cx="230.5" cy="52.5" r="7.5" fill="white"/>
<circle cx="248.5" cy="60.5" r="7.5" fill="white"/>
<circle cx="267.5" cy="60.5" r="7.5" fill="white"/>
<circle cx="279.5" cy="75.5" r="7.5" fill="white"/>
<circle cx="279.5" cy="95.5" r="7.5" fill="white"/>
<circle cx="280.5" cy="115.5" r="7.5" fill="white"/>
<circle cx="280.5" cy="155.5" r="7.5" fill="white"/>
<circle cx="280.5" cy="175.5" r="7.5" fill="white"/>
<circle cx="280.5" cy="195.5" r="7.5" fill="white"/>
<circle cx="267.5" cy="208.5" r="7.5" fill="white"/>
<circle cx="248.5" cy="208.5" r="7.5" fill="white"/>
<circle cx="230.5" cy="225.5" r="7.5" fill="white"/>
<circle cx="230.5" cy="244.5" r="7.5" fill="white"/>
<circle cx="215.5" cy="252.5" r="7.5" fill="white"/>
<circle cx="194.5" cy="252.5" r="7.5" fill="white"/>
<circle cx="152.5" cy="252.5" r="7.5" fill="white"/>
<circle cx="131.5" cy="252.5" r="7.5" fill="white"/>
<circle cx="110.5" cy="252.5" r="7.5" fill="white"/>
<circle cx="89.5" cy="252.5" r="7.5" fill="white"/>
<circle cx="89.5" cy="232.5" r="7.5" fill="white"/>
<circle cx="89.5" cy="212.5" r="7.5" fill="white"/>
<circle cx="70.5" cy="205.5" r="7.5" fill="white"/>
<circle cx="49.5" cy="208.5" r="7.5" fill="white"/>
<circle cx="41.5" cy="191.5" r="7.5" fill="white"/>
<circle cx="41.5" cy="140.5" r="7.5" fill="white"/>
<circle cx="41.5" cy="123.5" r="7.5" fill="white"/>
<circle cx="41.5" cy="106.5" r="7.5" fill="white"/>
<circle cx="41.5" cy="89.5" r="7.5" fill="white"/>
<circle cx="41.5" cy="72.5" r="7.5" fill="white"/>
<circle cx="59.5" cy="89.5" r="7.5" fill="white"/>
<circle cx="59.5" cy="123.5" r="7.5" fill="white"/>
<circle cx="59.5" cy="140.5" r="7.5" fill="white"/>
<circle cx="59.5" cy="157.5" r="7.5" fill="white"/>
<circle cx="59.5" cy="174.5" r="7.5" fill="white"/>
<circle cx="59.5" cy="191.5" r="7.5" fill="white"/>
<circle cx="77.5" cy="72.5" r="7.5" fill="white"/>
<circle cx="77.5" cy="106.5" r="7.5" fill="white"/>
<circle cx="77.5" cy="123.5" r="7.5" fill="white"/>
<circle cx="77.5" cy="140.5" r="7.5" fill="white"/>
<circle cx="77.5" cy="157.5" r="7.5" fill="white"/>
<circle cx="77.5" cy="174.5" r="7.5" fill="white"/>
<circle cx="77.5" cy="191.5" r="7.5" fill="white"/>
<circle cx="95.5" cy="72.5" r="7.5" fill="white"/>
<circle cx="95.5" cy="89.5" r="7.5" fill="white"/>
<circle cx="95.5" cy="106.5" r="7.5" fill="white"/>
<circle cx="95.5" cy="123.5" r="7.5" fill="white"/>
<circle cx="95.5" cy="140.5" r="7.5" fill="white"/>
<circle cx="95.5" cy="157.5" r="7.5" fill="white"/>
<circle cx="95.5" cy="55.5" r="7.5" fill="white"/>
<circle cx="113.5" cy="72.5" r="7.5" fill="white"/>
<circle cx="113.5" cy="89.5" r="7.5" fill="white"/>
<circle cx="113.5" cy="106.5" r="7.5" fill="white"/>
<circle cx="113.5" cy="140.5" r="7.5" fill="white"/>
<circle cx="113.5" cy="174.5" r="7.5" fill="white"/>
<circle cx="113.5" cy="191.5" r="7.5" fill="white"/>
<circle cx="113.5" cy="208.5" r="7.5" fill="white"/>
<circle cx="113.5" cy="225.5" r="7.5" fill="white"/>
<circle cx="122.5" cy="33.5" r="7.5" fill="white"/>
<circle cx="131.5" cy="72.5" r="7.5" fill="white"/>
<circle cx="131.5" cy="89.5" r="7.5" fill="white"/>
<circle cx="131.5" cy="106.5" r="7.5" fill="white"/>
<circle cx="131.5" cy="123.5" r="7.5" fill="white"/>
<circle cx="131.5" cy="140.5" r="7.5" fill="white"/>
<circle cx="131.5" cy="157.5" r="7.5" fill="white"/>
<circle cx="131.5" cy="174.5" r="7.5" fill="white"/>
<circle cx="131.5" cy="191.5" r="7.5" fill="white"/>
<circle cx="131.5" cy="208.5" r="7.5" fill="white"/>
<circle cx="131.5" cy="225.5" r="7.5" fill="white"/>
<circle cx="131.5" cy="55.5" r="7.5" fill="white"/>
<circle cx="140.5" cy="33.5" r="7.5" fill="white"/>
<circle cx="149.5" cy="72.5" r="7.5" fill="white"/>
<circle cx="149.5" cy="106.5" r="7.5" fill="white"/>
<circle cx="149.5" cy="123.5" r="7.5" fill="white"/>
<circle cx="149.5" cy="140.5" r="7.5" fill="white"/>
<circle cx="149.5" cy="157.5" r="7.5" fill="white"/>
<circle cx="149.5" cy="191.5" r="7.5" fill="white"/>
<circle cx="149.5" cy="208.5" r="7.5" fill="white"/>
<circle cx="149.5" cy="225.5" r="7.5" fill="white"/>
<circle cx="149.5" cy="55.5" r="7.5" fill="white"/>
<circle cx="158.5" cy="33.5" r="7.5" fill="white"/>
<circle cx="167.5" cy="72.5" r="7.5" fill="white"/>
<circle cx="167.5" cy="89.5" r="7.5" fill="white"/>
<circle cx="167.5" cy="106.5" r="7.5" fill="white"/>
<circle cx="167.5" cy="123.5" r="7.5" fill="white"/>
<circle cx="167.5" cy="140.5" r="7.5" fill="white"/>
<circle cx="167.5" cy="157.5" r="7.5" fill="white"/>
<circle cx="167.5" cy="174.5" r="7.5" fill="white"/>
<circle cx="167.5" cy="191.5" r="7.5" fill="white"/>
<circle cx="167.5" cy="55.5" r="7.5" fill="white"/>
<circle cx="176.5" cy="33.5" r="7.5" fill="white"/>
<circle cx="185.5" cy="72.5" r="7.5" fill="white"/>
<circle cx="185.5" cy="106.5" r="7.5" fill="white"/>
<circle cx="185.5" cy="123.5" r="7.5" fill="white"/>
<circle cx="185.5" cy="140.5" r="7.5" fill="white"/>
<circle cx="185.5" cy="208.5" r="7.5" fill="white"/>
<circle cx="185.5" cy="225.5" r="7.5" fill="white"/>
<circle cx="203.5" cy="72.5" r="7.5" fill="white"/>
<circle cx="203.5" cy="89.5" r="7.5" fill="white"/>
<circle cx="203.5" cy="106.5" r="7.5" fill="white"/>
<circle cx="203.5" cy="140.5" r="7.5" fill="white"/>
<circle cx="203.5" cy="157.5" r="7.5" fill="white"/>
<circle cx="203.5" cy="174.5" r="7.5" fill="white"/>
<circle cx="203.5" cy="191.5" r="7.5" fill="white"/>
<circle cx="203.5" cy="208.5" r="7.5" fill="white"/>
<circle cx="203.5" cy="225.5" r="7.5" fill="white"/>
<circle cx="203.5" cy="55.5" r="7.5" fill="white"/>
<circle cx="212.5" cy="33.5" r="7.5" fill="white"/>
<circle cx="221.5" cy="72.5" r="7.5" fill="white"/>
<circle cx="221.5" cy="89.5" r="7.5" fill="white"/>
<circle cx="238.5" cy="106.5" r="7.5" fill="white"/>
<circle cx="255.5" cy="106.5" r="7.5" fill="white"/>
<circle cx="221.5" cy="123.5" r="7.5" fill="white"/>
<circle cx="238.5" cy="123.5" r="7.5" fill="white"/>
<circle cx="255.5" cy="123.5" r="7.5" fill="white"/>
<circle cx="221.5" cy="140.5" r="7.5" fill="white"/>
<circle cx="238.5" cy="140.5" r="7.5" fill="white"/>
<circle cx="255.5" cy="140.5" r="7.5" fill="white"/>
<circle cx="221.5" cy="157.5" r="7.5" fill="white"/>
<circle cx="238.5" cy="157.5" r="7.5" fill="white"/>
<circle cx="255.5" cy="157.5" r="7.5" fill="white"/>
<circle cx="221.5" cy="174.5" r="7.5" fill="white"/>
<circle cx="238.5" cy="174.5" r="7.5" fill="white"/>
<circle cx="221.5" cy="191.5" r="7.5" fill="white"/>
<circle cx="238.5" cy="191.5" r="7.5" fill="white"/>
<circle cx="255.5" cy="191.5" r="7.5" fill="white"/>
<circle cx="221.5" cy="208.5" r="7.5" fill="white"/>
<circle cx="261.5" cy="86.5" r="7.5" fill="white"/>
<circle cx="41.5" cy="55.5" r="7.5" fill="white"/>
<circle cx="59.5" cy="55.5" r="7.5" fill="white"/>
<circle cx="77.5" cy="55.5" r="7.5" fill="white"/>
<circle cx="86.5" cy="33.5" r="7.5" fill="white"/>
<circle cx="280.5" cy="135.5" r="7.5" fill="white"/>
<rect x="4" y="128" width="311" height="5" fill="url(#paint0_linear_1_9)"/>
<rect x="315" y="150" width="311" height="17" transform="rotate(180 315 150)" fill="url(#paint1_linear_1_9)" fill-opacity="0.8"/>
</g>
<defs>
<filter id="filter0_d_1_9" x="0" y="0" width="319" height="274" filterUnits="userSpaceOnUse" color-interpolation-filters="sRGB">
<feFlood flood-opacity="0" result="BackgroundImageFix"/>
<feColorMatrix in="SourceAlpha" type="matrix" values="0 0 0 0 0 0 0 0 0 0 0 0 0 0 0 0 0 0 127 0" result="hardAlpha"/>
<feOffset dy="4"/>
<feGaussianBlur stdDeviation="2"/>
<feComposite in2="hardAlpha" operator="out"/>
<feColorMatrix type="matrix" values="0 0 0 0 0 0 0 0 0 0 0 0 0 0 0 0 0 0 0.25 0"/>
<feBlend mode="normal" in2="BackgroundImageFix" result="effect1_dropShadow_1_9"/>
<feBlend mode="normal" in="SourceGraphic" in2="effect1_dropShadow_1_9" result="shape"/>
</filter>
<linearGradient id="paint0_linear_1_9" x1="335.701" y1="130.667" x2="4" y2="130.667" gradientUnits="userSpaceOnUse">
<stop stop-color="#FF79B9"/>
<stop offset="0.973334" stop-color="#FFF2AD"/>
</linearGradient>
<linearGradient id="paint1_linear_1_9" x1="646.701" y1="159.067" x2="315" y2="159.067" gradientUnits="userSpaceOnUse">
<stop stop-color="#FF79B9" stop-opacity="0.55"/>
<stop offset="1" stop-color="#FFF2AD" stop-opacity="0.67"/>
</linearGradient>
</defs>
</svg>
