<svg width="60" height="60" viewBox="0 0 60 60" fill="none" xmlns="http://www.w3.org/2000/svg">
<path d="M29.77 17.5C27.1641 17.547 24.6381 18.4073 22.5452 19.9606C20.4524 21.514 18.8975 23.6827 18.0979 26.1633C17.2984 28.6439 17.2942 31.3124 18.086 33.7955C18.8778 36.2786 20.426 38.4521 22.514 40.012C22.8322 40.2507 23.0426 40.606 23.0989 40.9999C23.1551 41.3937 23.0526 41.7937 22.814 42.112C22.5753 42.4303 22.2199 42.6407 21.8261 42.6969C21.4323 42.7532 21.0322 42.6507 20.714 42.412C18.1956 40.5295 16.3094 37.9256 15.3056 34.946C14.3017 31.9664 14.2278 28.7519 15.0936 25.7293C15.9594 22.7067 17.7239 20.0188 20.153 18.0225C22.5821 16.0262 25.5609 14.8158 28.694 14.552L27.526 13.38C27.261 13.0957 27.1167 12.7196 27.1236 12.331C27.1305 11.9424 27.2879 11.5716 27.5627 11.2968C27.8375 11.0219 28.2083 10.8645 28.5969 10.8576C28.9855 10.8508 29.3616 10.995 29.646 11.26L33.89 15.502C34.1709 15.7833 34.3286 16.1645 34.3286 16.562C34.3286 16.9595 34.1709 17.3408 33.89 17.622L29.646 21.868C29.3616 22.133 28.9855 22.2772 28.5969 22.2704C28.2083 22.2635 27.8375 22.1061 27.5627 21.8312C27.2879 21.5564 27.1305 21.1856 27.1236 20.797C27.1167 20.4084 27.261 20.0324 27.526 19.748L29.77 17.5ZM30.23 42.496C32.8358 42.449 35.3618 41.5887 37.4547 40.0354C39.5475 38.482 41.1024 36.3134 41.902 33.8327C42.7015 31.3521 42.7057 28.6836 41.9139 26.2005C41.1221 23.7174 39.5739 21.5439 37.486 19.984C37.1677 19.7453 36.9573 19.39 36.901 18.9961C36.8448 18.6023 36.9473 18.2023 37.186 17.884C37.4247 17.5657 37.78 17.3553 38.1738 17.2991C38.5676 17.2428 38.9677 17.3453 39.286 17.584C41.8043 19.4665 43.6905 22.0704 44.6943 25.05C45.6982 28.0297 45.7721 31.2441 44.9063 34.2667C44.0405 37.2893 42.276 39.9772 39.8469 41.9735C37.4178 43.9698 34.439 45.1802 31.306 45.444L32.474 46.614C32.6173 46.7523 32.7316 46.9178 32.8103 47.1007C32.889 47.2837 32.9305 47.4805 32.9323 47.6797C32.9341 47.8789 32.8963 48.0764 32.821 48.2608C32.7456 48.4451 32.6343 48.6127 32.4935 48.7536C32.3528 48.8945 32.1854 49.0059 32.001 49.0814C31.8167 49.157 31.6192 49.195 31.4201 49.1934C31.2209 49.1917 31.024 49.1504 30.841 49.0719C30.658 48.9934 30.4924 48.8792 30.354 48.736L26.11 44.494C25.8291 44.2128 25.6713 43.8315 25.6713 43.434C25.6713 43.0365 25.8291 42.6553 26.11 42.374L30.354 38.13C30.4913 37.9826 30.6569 37.8644 30.8409 37.7824C31.0249 37.7005 31.2235 37.6564 31.4249 37.6528C31.6263 37.6493 31.8264 37.6863 32.0131 37.7618C32.1999 37.8372 32.3696 37.9495 32.512 38.0919C32.6545 38.2344 32.7668 38.404 32.8422 38.5908C32.9176 38.7776 32.9547 38.9776 32.9511 39.179C32.9476 39.3805 32.9035 39.5791 32.8215 39.7631C32.7395 39.9471 32.6213 40.1127 32.474 40.25L30.23 42.496Z" fill="white"/>
<circle cx="30" cy="30" r="29.5" stroke="white" stroke-opacity="0.33"/>
</svg>
